<svg width="119" height="40" viewBox="0 0 119 40" fill="none" xmlns="http://www.w3.org/2000/svg">
<path fill-rule="evenodd" clip-rule="evenodd" d="M17.1061 17.168L16.6517 18.8751L19.4336 18.1246L22.2161 17.374L21.2015 16.3525C21.8328 15.99 22.5053 15.7055 23.2043 15.5051C23.8997 15.3059 24.6162 15.1909 25.3387 15.1626L25.7047 15.1555C26.4315 15.1555 27.1382 15.2413 27.8159 15.4031C28.4156 15.546 28.9919 15.7488 29.5386 16.0048C30.4648 16.438 31.3121 17.025 32.0449 17.7412L32.1468 17.8425C32.6225 18.3215 33.0459 18.853 33.4067 19.4275C34.2987 20.8454 34.8151 22.5266 34.8145 24.3286C34.8145 26.8616 33.7947 29.1549 32.1462 30.8146C30.4977 32.4743 28.22 33.501 25.7041 33.501L25.3381 33.4938C25.1787 33.6719 25.0147 33.8467 24.845 34.017C24.1615 34.706 23.407 35.3196 22.5943 35.8475C23.5857 36.1185 24.6281 36.2628 25.7041 36.2628C28.9771 36.2628 31.941 34.9267 34.0858 32.7673C36.2306 30.6073 37.5576 27.6239 37.5576 24.3286C37.5576 21.0332 36.2306 18.0498 34.0858 15.8904L34.0561 15.8605C33.5155 15.3202 32.9248 14.8332 32.2921 14.4062C30.8005 13.3999 29.1005 12.7498 27.3215 12.5054C26.7929 12.4327 26.2533 12.395 25.7041 12.395C24.6281 12.395 23.5857 12.5392 22.5943 12.8096C21.8595 13.0103 21.1457 13.2823 20.4631 13.6219C20.0287 13.8376 19.6091 14.08 19.207 14.3458L18.1427 13.2742L17.4908 15.7247L17.3979 16.075L17.1068 17.1687L17.1061 17.168Z" fill="#18181B"/>
<path fill-rule="evenodd" clip-rule="evenodd" d="M24.3325 24.3974C24.3273 25.1435 24.2331 25.8674 24.0608 26.5607C23.8859 27.266 23.6276 27.9476 23.2914 28.5908C22.9027 29.3344 22.4147 30.0209 21.8411 30.6313L21.6642 30.8139C21.2936 31.1872 20.8917 31.5277 20.4631 31.8316C19.6295 32.4233 18.7028 32.8693 17.7219 33.1507C17.0396 33.3463 16.3251 33.4633 15.5881 33.4932L15.2221 33.5003C12.7062 33.5003 10.4284 32.4736 8.77994 30.8139C7.13148 29.1542 6.11168 26.861 6.11168 24.3279C6.11168 22.5259 6.62804 20.8448 7.51939 19.4275C7.1468 18.2723 6.92845 17.0724 6.87008 15.8592L6.84039 15.8891C4.69494 18.0485 3.36856 21.0319 3.36856 24.3273C3.36856 27.6226 4.69558 30.6066 6.84039 32.766C8.98519 34.9254 11.9484 36.2615 15.2214 36.2615C16.2974 36.2615 17.3404 36.1172 18.3312 35.8462C19.066 35.6456 19.7797 35.3738 20.4624 35.0346C21.4641 34.5368 22.3858 33.9006 23.203 33.1507C23.3392 33.0253 23.4728 32.8973 23.6031 32.7667C23.9523 32.4145 24.2802 32.0408 24.5842 31.6477C25.5491 30.398 26.2733 28.9502 26.6851 27.3743C26.8762 26.6446 27.0001 25.8869 27.0498 25.109C27.0666 24.8504 27.075 24.5898 27.075 24.3273C27.075 24.1037 27.0692 23.8821 27.0569 23.6618L28.4956 23.2739L26.7426 21.5089L26.4592 21.2236L25.664 20.4224L24.4229 19.1728L23.6774 21.9742L22.9319 24.7756L24.3325 24.3974Z" fill="#18181B"/>
<path fill-rule="evenodd" clip-rule="evenodd" d="M15.8617 23.1049C15.2292 22.7313 14.6457 22.2842 14.1229 21.7734L14.0209 21.672C13.5441 21.1922 13.1216 20.6606 12.761 20.0871C12.3154 19.3785 11.9685 18.6117 11.7302 17.8081C11.5592 17.2291 11.443 16.6254 11.3882 16.0048C11.3643 15.7351 11.3527 15.4622 11.3527 15.1867C11.3527 14.4166 11.4469 13.6686 11.6244 12.9538C11.8019 12.2403 12.062 11.5599 12.3938 10.9237C12.8219 10.1045 13.3705 9.35497 14.0209 8.70065C15.6694 7.04097 17.9471 6.01423 20.4631 6.01423C22.979 6.01423 25.2568 7.04097 26.9052 8.70065C27.5555 9.3551 28.1041 10.1046 28.5324 10.9237C29.7155 11.1759 30.856 11.5853 31.9268 12.1402C31.3859 10.0692 30.3048 8.21782 28.8448 6.74855C26.6993 4.58849 23.7361 3.25308 20.4631 3.25308C17.19 3.25308 14.2262 4.58849 12.0814 6.74855C10.622 8.21782 9.54091 10.0692 8.99939 12.1402C8.80547 12.8817 8.68334 13.6404 8.63471 14.4056C8.61793 14.6642 8.60954 14.9241 8.60954 15.1867C8.60954 16.0639 8.70377 16.9185 8.88192 17.7412C9.02779 18.4151 9.23045 19.0681 9.48476 19.6939C10.0857 21.1769 10.9751 22.5103 12.082 23.6248L12.1117 23.6547C12.6513 24.194 13.2419 24.6814 13.8757 25.109C14.2778 25.38 14.6967 25.6269 15.1317 25.8479L14.7651 27.2236L17.0313 26.6121L17.5476 26.473L18.5848 26.1929L20.3301 25.7218L18.2937 23.6716L16.2574 21.6213L15.863 23.1043L15.8617 23.1049Z" fill="#18181B"/>
<path d="M45.6669 25.8986C44.6077 25.3007 43.7687 24.4722 43.149 23.4123C42.5294 22.3531 42.2196 21.1535 42.2196 19.8141C42.2196 18.4748 42.5294 17.2954 43.149 16.2355C43.7687 15.1763 44.6077 14.3471 45.6669 13.7492C46.7254 13.1514 47.8879 12.8525 49.1536 12.8525C50.4193 12.8525 51.5972 13.1514 52.6499 13.7492C53.702 14.3471 54.5353 15.1763 55.1484 16.2355C55.7616 17.2954 56.0682 18.4878 56.0682 19.8141C56.0682 21.1405 55.7616 22.3524 55.1484 23.4123C54.5353 24.4722 53.6988 25.3007 52.6403 25.8986C51.5811 26.4964 50.4193 26.7953 49.1536 26.7953C47.8879 26.7953 46.7261 26.4964 45.6669 25.8986ZM51.3035 23.8022C51.9232 23.4318 52.4072 22.9022 52.7564 22.2127C53.105 21.5239 53.2792 20.7239 53.2792 19.8141C53.2792 18.9044 53.105 18.1077 52.7564 17.4254C52.4079 16.743 51.9238 16.2199 51.3035 15.8553C50.6839 15.4914 49.9668 15.3095 49.1536 15.3095C48.3403 15.3095 47.62 15.4914 46.9939 15.8553C46.3672 16.2193 45.8805 16.7424 45.5314 17.4254C45.1828 18.1077 45.0086 18.9044 45.0086 19.8141C45.0086 20.7239 45.1828 21.5239 45.5314 22.2127C45.8799 22.9022 46.3672 23.4318 46.9939 23.8022C47.62 24.1726 48.3403 24.3578 49.1536 24.3578C49.9668 24.3578 50.6839 24.1726 51.3035 23.8022ZM61.8494 16.1777C62.4626 15.8462 63.1629 15.6805 63.951 15.6805C64.8675 15.6805 65.6969 15.908 66.4398 16.3629C67.182 16.8184 67.7694 17.465 68.2025 18.3033C68.6349 19.1416 68.8512 20.1137 68.8512 21.2184C68.8512 22.3232 68.6349 23.3018 68.2025 24.1531C67.7694 25.005 67.182 25.6646 66.4398 26.1325C65.6969 26.6004 64.8675 26.8343 63.951 26.8343C63.1629 26.8343 62.469 26.6719 61.8688 26.3469C61.2685 26.022 60.7806 25.6126 60.4062 25.1181V31.8069H57.6947V15.8553H60.4062V17.4156C60.7547 16.9217 61.2356 16.5091 61.8494 16.177V16.1777ZM65.6846 19.5315C65.42 19.0571 65.0714 18.6964 64.639 18.4488C64.2059 18.2019 63.7386 18.0784 63.2345 18.0784C62.7304 18.0784 62.2819 18.2052 61.8494 18.4586C61.4163 18.712 61.0678 19.0798 60.8038 19.5607C60.5392 20.0416 60.4068 20.6076 60.4068 21.2574C60.4068 21.9073 60.5392 22.4733 60.8038 22.9542C61.0684 23.435 61.417 23.8022 61.8494 24.0556C62.2819 24.3091 62.7433 24.4358 63.2345 24.4358C63.7257 24.4358 64.2059 24.3058 64.639 24.0459C65.0714 23.7859 65.42 23.4155 65.6846 22.9347C65.9493 22.4538 66.0816 21.8813 66.0816 21.2184C66.0816 20.5556 65.9493 20.0065 65.6846 19.5315ZM72.5605 26.308C71.8053 25.983 71.2077 25.5152 70.7688 24.9037C70.3299 24.2928 70.1033 23.5715 70.091 22.7391H72.9962C73.0349 23.2979 73.2318 23.7405 73.5868 24.0654C73.9417 24.3903 74.4291 24.5527 75.0493 24.5527C75.6696 24.5527 76.1789 24.4 76.5409 24.0946C76.9024 23.7892 77.0831 23.3895 77.0831 22.8957C77.0831 22.4928 76.9605 22.1614 76.7152 21.9014C76.4699 21.6415 76.1634 21.4368 75.7955 21.2873C75.4276 21.1379 74.9202 20.9722 74.2748 20.7902C73.3964 20.5303 72.6831 20.2736 72.1345 20.0201C71.5852 19.7667 71.1141 19.3833 70.7204 18.8693C70.326 18.3559 70.1298 17.6697 70.1298 16.8119C70.1298 16.0061 70.3299 15.3036 70.73 14.7058C71.1302 14.1079 71.6917 13.6498 72.4153 13.3307C73.1382 13.0123 73.965 12.8531 74.8944 12.8531C76.2892 12.8531 77.422 13.1943 78.294 13.8766C79.166 14.5589 79.6462 15.5116 79.7372 16.7333H76.7546C76.7288 16.2654 76.5319 15.8787 76.164 15.5727C75.7961 15.2672 75.3088 15.1145 74.7014 15.1145C74.1715 15.1145 73.7488 15.251 73.4325 15.5239C73.1162 15.7969 72.9581 16.1939 72.9581 16.7138C72.9581 17.0777 73.0775 17.3799 73.3163 17.6203C73.5551 17.8614 73.852 18.0563 74.207 18.2052C74.562 18.3546 75.0622 18.5268 75.7083 18.7218C76.5861 18.9817 77.3032 19.2416 77.8583 19.5016C78.4134 19.7615 78.891 20.1521 79.2918 20.6713C79.692 21.1911 79.8921 21.8741 79.8921 22.7189C79.8921 23.4474 79.7049 24.1226 79.3305 24.7471C78.9562 25.3709 78.4069 25.868 77.684 26.2391C76.9605 26.6095 76.102 26.7947 75.1081 26.7947C74.1651 26.7947 73.3163 26.6322 72.5611 26.3073L72.5605 26.308ZM92.1129 15.856L85.4693 31.7685H82.5836L84.9078 26.3866L80.6079 15.856H83.6485L86.4181 23.4025L89.2265 15.856H92.1122H92.1129ZM102.224 16.9185C103.011 17.7308 103.406 18.8654 103.406 20.3217V26.6595H100.694V20.6921C100.694 19.8343 100.481 19.1741 100.055 18.7127C99.629 18.2513 99.0481 18.0206 98.3117 18.0206C97.5752 18.0206 96.9717 18.2513 96.5393 18.7127C96.1062 19.1741 95.8906 19.8336 95.8906 20.6921V26.6595H93.1791V15.856H95.8906V17.2018C96.2521 16.7339 96.7136 16.3668 97.2757 16.0997C97.8373 15.8333 98.4537 15.7 99.1256 15.7C100.404 15.7 101.437 16.1062 102.224 16.9185H102.224ZM105.574 18.3228C106.026 17.4845 106.652 16.834 107.453 16.3726C108.253 15.9112 109.17 15.6805 110.203 15.6805C111.533 15.6805 112.634 16.0152 113.506 16.6852C114.377 17.3552 114.961 18.2942 115.259 19.5029H112.335C112.18 19.035 111.918 18.6678 111.55 18.4008C111.182 18.1343 110.727 18.0011 110.185 18.0011C109.41 18.0011 108.796 18.2838 108.344 18.8491C107.893 19.4145 107.667 20.2177 107.667 21.2574C107.667 22.2972 107.893 23.0809 108.344 23.6462C108.796 24.2116 109.409 24.4943 110.185 24.4943C111.282 24.4943 111.999 24.0004 112.335 23.012H115.259C114.962 24.1817 114.374 25.1116 113.496 25.8004C112.618 26.4899 111.521 26.8343 110.204 26.8343C109.171 26.8343 108.254 26.6036 107.454 26.1423C106.653 25.6809 106.027 25.0304 105.575 24.1921C105.122 23.3538 104.897 22.3758 104.897 21.2574C104.897 20.1391 105.123 19.1611 105.575 18.3228H105.574Z" fill="#18181B"/>
</svg>
