<svg xmlns="http://www.w3.org/2000/svg" viewBox="0 0 1843.7 615.54"><defs><style>.cls-2{fill-rule:evenodd}</style></defs><g id="Layer_1"><path d="m265.03 264.19-7.04 26.27 43.1-11.55 43.11-11.55-15.72-15.72a140.13 140.13 0 0 1 31.03-13.04 140.83 140.83 0 0 1 33.07-5.27l5.67-.11c11.26 0 22.21 1.32 32.71 3.81 9.29 2.2 18.22 5.32 26.69 9.26a141.07 141.07 0 0 1 38.83 26.72l1.58 1.56c7.37 7.37 13.93 15.55 19.52 24.39 13.82 21.82 21.82 47.69 21.81 75.42 0 38.98-15.8 74.27-41.34 99.81-25.54 25.54-60.83 41.34-99.81 41.34l-5.67-.11c-2.47 2.74-5.01 5.43-7.64 8.05a210.816 210.816 0 0 1-34.87 28.17c15.36 4.17 31.51 6.39 48.18 6.39 50.71 0 96.63-20.56 129.86-53.79 33.23-33.24 53.79-79.15 53.79-129.86 0-50.71-20.56-96.62-53.79-129.85l-.46-.46a184.81 184.81 0 0 0-27.33-22.38 182.714 182.714 0 0 0-77.01-29.25c-8.19-1.12-16.55-1.7-25.06-1.7-16.67 0-32.82 2.22-48.18 6.38a182.34 182.34 0 0 0-33.02 12.5c-6.73 3.32-13.23 7.05-19.46 11.14l-16.49-16.49-10.1 37.71-1.44 5.39-4.51 16.83z" class="cls-2"/><path d="M376.99 375.44c-.08 11.48-1.54 22.62-4.21 33.29a139.769 139.769 0 0 1-11.92 31.24 141.744 141.744 0 0 1-22.47 31.4l-2.74 2.81a141.54 141.54 0 0 1-18.61 15.66 140.517 140.517 0 0 1-42.47 20.3c-10.57 3.01-21.64 4.81-33.06 5.27l-5.67.11c-38.98 0-74.27-15.8-99.81-41.34-25.54-25.54-41.34-60.83-41.34-99.81 0-27.73 8-53.6 21.81-75.41a210.806 210.806 0 0 1-10.06-54.91l-.46.46c-33.24 33.23-53.79 79.14-53.79 129.85s20.56 96.63 53.79 129.86c33.23 33.23 79.14 53.79 129.85 53.79 16.67 0 32.83-2.22 48.18-6.39a182.59 182.59 0 0 0 33.02-12.49c15.52-7.66 29.8-17.45 42.46-28.99 2.11-1.93 4.18-3.9 6.2-5.91 5.41-5.42 10.49-11.17 15.2-17.22 14.95-19.23 26.17-41.51 32.55-65.76 2.96-11.23 4.88-22.89 5.65-34.86.26-3.98.39-7.99.39-12.03 0-3.44-.09-6.85-.28-10.24l22.29-5.97-27.16-27.16-4.39-4.39-12.32-12.33-19.23-19.23-11.55 43.11-11.55 43.11 21.7-5.82z" class="cls-2"/><path d="M245.75 355.55c-9.8-5.75-18.84-12.63-26.94-20.49l-1.58-1.56a141.457 141.457 0 0 1-19.52-24.39 140.882 140.882 0 0 1-15.97-35.07c-2.65-8.91-4.45-18.2-5.3-27.75-.37-4.15-.55-8.35-.55-12.59 0-11.85 1.46-23.36 4.21-34.36 2.75-10.98 6.78-21.45 11.92-31.24a141.475 141.475 0 0 1 25.21-34.21c25.54-25.54 60.83-41.34 99.81-41.34s74.27 15.8 99.81 41.34a141.67 141.67 0 0 1 25.21 34.21c18.33 3.88 36 10.18 52.59 18.72-8.38-31.87-25.13-60.36-47.75-82.97-33.24-33.24-79.15-53.79-129.86-53.79-50.71 0-96.63 20.55-129.86 53.79-22.61 22.61-39.36 51.1-47.75 82.97a182.732 182.732 0 0 0-5.65 34.86c-.26 3.98-.39 7.98-.39 12.02 0 13.5 1.46 26.65 4.22 39.31 2.26 10.37 5.4 20.42 9.34 30.05 9.31 22.82 23.09 43.34 40.24 60.49l.46.46c8.36 8.3 17.51 15.8 27.33 22.38 6.23 4.17 12.72 7.97 19.46 11.37l-5.68 21.17 35.11-9.41 8-2.14 16.07-4.31 27.04-7.25-31.55-31.55-31.55-31.55-6.11 22.82z" class="cls-2"/></g><path id="TEXT" d="M707.53 398.54c-16.41-9.2-29.41-21.95-39.01-38.26-9.6-16.3-14.4-34.76-14.4-55.37s4.8-38.76 14.4-55.07c9.6-16.3 22.6-29.06 39.01-38.26 16.4-9.2 34.41-13.8 54.02-13.8s37.86 4.6 54.17 13.8c16.3 9.2 29.21 21.96 38.71 38.26 9.5 16.31 14.25 34.66 14.25 55.07s-4.75 39.06-14.25 55.37c-9.5 16.31-22.46 29.06-38.86 38.26-16.41 9.2-34.41 13.8-54.02 13.8s-37.61-4.6-54.02-13.8zm87.33-32.26c9.6-5.7 17.1-13.85 22.51-24.46 5.4-10.6 8.1-22.91 8.1-36.91s-2.7-26.26-8.1-36.76c-5.4-10.5-12.9-18.55-22.51-24.16-9.6-5.6-20.71-8.4-33.31-8.4s-23.76 2.8-33.46 8.4c-9.71 5.6-17.25 13.65-22.66 24.16-5.4 10.5-8.1 22.76-8.1 36.76s2.7 26.31 8.1 36.91c5.4 10.61 12.95 18.76 22.66 24.46 9.7 5.7 20.86 8.55 33.46 8.55s23.71-2.85 33.31-8.55zm163.39-117.33c9.5-5.1 20.35-7.65 32.56-7.65 14.2 0 27.05 3.5 38.56 10.5 11.5 7.01 20.6 16.96 27.31 29.86 6.7 12.9 10.05 27.86 10.05 44.86s-3.35 32.06-10.05 45.16c-6.71 13.11-15.81 23.26-27.31 30.46-11.51 7.2-24.36 10.8-38.56 10.8-12.21 0-22.96-2.5-32.26-7.5-9.3-5-16.86-11.3-22.66-18.91v102.93h-42.01V243.99h42.01V268c5.4-7.6 12.85-13.95 22.36-19.06zm59.42 51.61c-4.1-7.3-9.5-12.85-16.2-16.66-6.71-3.8-13.95-5.7-21.76-5.7s-14.76 1.95-21.46 5.85c-6.71 3.9-12.11 9.56-16.2 16.96-4.1 7.4-6.15 16.11-6.15 26.11s2.05 18.71 6.15 26.11c4.1 7.4 9.5 13.05 16.2 16.95 6.7 3.9 13.85 5.85 21.46 5.85s15.05-2 21.76-6c6.7-4 12.1-9.7 16.2-17.1 4.1-7.4 6.15-16.21 6.15-26.41s-2.05-18.65-6.15-25.96zm106.53 104.28c-11.7-5-20.96-12.2-27.76-21.61-6.8-9.4-10.31-20.5-10.5-33.31h45.01c.6 8.6 3.65 15.41 9.15 20.41s13.05 7.5 22.66 7.5 17.5-2.35 23.11-7.05c5.6-4.7 8.4-10.85 8.4-18.45 0-6.2-1.9-11.3-5.7-15.3-3.8-4-8.55-7.15-14.25-9.45-5.7-2.3-13.56-4.85-23.56-7.65-13.61-4-24.66-7.95-33.16-11.85-8.51-3.9-15.81-9.8-21.91-17.71-6.11-7.9-9.15-18.46-9.15-31.66 0-12.4 3.1-23.21 9.3-32.41 6.2-9.2 14.9-16.25 26.11-21.16 11.2-4.9 24.01-7.35 38.41-7.35 21.61 0 39.16 5.25 52.67 15.75s20.95 25.16 22.36 43.96h-46.21c-.4-7.2-3.45-13.15-9.15-17.86-5.7-4.7-13.25-7.05-22.66-7.05-8.21 0-14.76 2.1-19.66 6.3-4.9 4.2-7.35 10.31-7.35 18.31 0 5.6 1.85 10.25 5.55 13.95 3.7 3.71 8.3 6.71 13.8 9 5.5 2.3 13.25 4.95 23.26 7.95 13.6 4 24.71 8 33.31 12 8.6 4 16 10.01 22.21 18 6.2 8 9.3 18.51 9.3 31.51 0 11.21-2.9 21.6-8.7 31.21-5.8 9.6-14.31 17.25-25.51 22.96-11.21 5.7-24.51 8.55-39.91 8.55-14.61 0-27.76-2.5-39.46-7.5zM1427.13 244 1324.2 488.87h-44.71l36.01-82.82L1248.88 244h47.11l42.91 116.13L1382.41 244h44.71zm156.65 16.35c12.2 12.5 18.31 29.96 18.31 52.37v97.53h-42.01v-91.83c0-13.2-3.3-23.36-9.9-30.46-6.6-7.1-15.6-10.65-27.01-10.65s-20.76 3.55-27.46 10.65c-6.71 7.1-10.05 17.25-10.05 30.46v91.83h-42.01V244h42.01v20.71c5.6-7.2 12.75-12.85 21.46-16.96 8.7-4.1 18.25-6.15 28.66-6.15 19.81 0 35.81 6.25 48.01 18.75zm51.91 21.61c7-12.9 16.7-22.91 29.11-30.01 12.4-7.1 26.6-10.65 42.61-10.65 20.6 0 37.66 5.15 51.17 15.46 13.5 10.31 22.55 24.76 27.16 43.36h-45.31c-2.4-7.2-6.45-12.85-12.15-16.96-5.7-4.1-12.75-6.15-21.16-6.15-12 0-21.51 4.35-28.51 13.05-7 8.7-10.5 21.06-10.5 37.06s3.5 28.06 10.5 36.76 16.5 13.05 28.51 13.05c17 0 28.11-7.6 33.31-22.81h45.31c-4.6 18-13.71 32.31-27.31 42.91-13.61 10.61-30.61 15.91-51.01 15.91-16.01 0-30.21-3.55-42.61-10.65-12.41-7.1-22.11-17.11-29.11-30.01-7.01-12.9-10.5-27.95-10.5-45.16s3.5-32.26 10.5-45.16z"/></svg>